<svg width="34" height="18" viewBox="0 0 34 18" fill="none" xmlns="http://www.w3.org/2000/svg">
<path d="M17 8.85512C19.0537 8.85512 20.7278 7.02539 20.7278 4.79907C20.7278 2.59809 19.0625 0.85498 17 0.85498C14.9552 0.85498 13.2722 2.62402 13.2722 4.81616C13.2804 7.03423 14.9546 8.85512 17 8.85512ZM7.05875 9.04428C8.83604 9.04428 10.2945 7.44732 10.2945 5.48853C10.2945 3.57336 8.85371 2.02825 7.05875 2.02825C5.28088 2.02825 3.81355 3.59869 3.82239 5.50562C3.83123 7.45616 5.28088 9.04428 7.05875 9.04428ZM26.9501 9.04428C28.7191 9.04428 30.1776 7.45616 30.1776 5.50562C30.1864 3.59869 28.7191 2.02825 26.9501 2.02825C25.1469 2.02825 23.7055 3.57277 23.7055 5.48853C23.7055 7.44732 25.164 9.04428 26.9501 9.04428ZM17 7.55162C15.7401 7.55162 14.6611 6.34359 14.6611 4.81616C14.6611 3.31466 15.723 2.15848 17.0006 2.15848C18.2858 2.15848 19.3389 3.29757 19.3389 4.79848C19.3389 6.3265 18.277 7.55162 17 7.55162ZM7.05875 7.75905C6.0057 7.75905 5.10821 6.74902 5.10821 5.50621C5.10821 4.28993 5.99686 3.31407 7.05875 3.31407C8.14598 3.31407 9.01754 4.27225 9.01754 5.48912C9.01754 6.74902 8.12005 7.75905 7.05875 7.75905ZM26.9501 7.75905C25.8799 7.75905 24.9825 6.74902 24.9825 5.48912C24.9825 4.27225 25.854 3.31466 26.9501 3.31466C28.0114 3.31466 28.8918 4.28993 28.8918 5.5068C28.8918 6.74902 28.0026 7.75905 26.9501 7.75905ZM2.2602 16.9578H9.03463C8.62036 16.725 8.30096 16.2071 8.36166 15.6808H2.04452C1.87186 15.6808 1.78582 15.6119 1.78582 15.4481C1.78582 13.3078 4.22782 11.3054 7.04991 11.3054C8.13714 11.3054 9.11241 11.5647 9.9492 12.0561C10.2267 11.7042 10.5554 11.3959 10.9245 11.1416C9.8113 10.4079 8.47363 10.0284 7.04991 10.0284C3.43405 10.0284 0.5 12.6519 0.5 15.5258C0.5 16.4834 1.08693 16.9578 2.2602 16.9578ZM31.7481 16.9578C32.9131 16.9578 33.5 16.4834 33.5 15.5258C33.5 12.6519 30.5654 10.0284 26.9501 10.0284C25.5264 10.0284 24.1969 10.4079 23.0755 11.1421C23.4639 11.4091 23.7827 11.7114 24.0596 12.0561C24.8876 11.5647 25.8711 11.3054 26.9501 11.3054C29.7722 11.3054 32.2142 13.3078 32.2142 15.4481C32.2142 15.6119 32.1364 15.6808 31.9637 15.6808H25.6466C25.6984 16.2071 25.3879 16.725 24.9736 16.9578H31.7481ZM11.5803 16.9578H22.4197C23.8516 16.9578 24.534 16.5264 24.534 15.5771C24.534 13.316 21.6772 10.0455 17 10.0455C12.314 10.0455 9.45714 13.316 9.45714 15.5771C9.45714 16.5264 10.1395 16.9578 11.5803 16.9578ZM11.1661 15.6555C10.9421 15.6555 10.8473 15.5948 10.8473 15.4139C10.8473 13.9978 13.0394 11.349 17 11.349C20.9523 11.349 23.1445 13.9978 23.1445 15.4133C23.1445 15.5948 23.0579 15.6549 22.8339 15.6549L11.1661 15.6555Z" fill="#F8F8F8" stroke="white"/>
</svg>
