<svg width="26" height="24" viewBox="0 0 26 24" fill="none" xmlns="http://www.w3.org/2000/svg">
<path d="M21.1667 4.47221L24.6667 7.97221L21.1667 11.4722M10.0833 9.72221C10.6196 9.72221 11.1506 9.61659 11.646 9.41138C12.1414 9.20618 12.5915 8.9054 12.9707 8.52623C13.3499 8.14706 13.6506 7.69691 13.8559 7.2015C14.0611 6.70609 14.1667 6.17511 14.1667 5.63888C14.1667 5.10264 14.0611 4.57166 13.8559 4.07625C13.6506 3.58084 13.3499 3.1307 12.9707 2.75152C12.5915 2.37235 12.1414 2.07157 11.646 1.86637C11.1506 1.66116 10.6196 1.55554 10.0833 1.55554C9.00038 1.55554 7.96176 1.98575 7.19599 2.75152C6.43022 3.5173 6.00001 4.55591 6.00001 5.63888C6.00001 6.72184 6.43022 7.76045 7.19599 8.52623C7.96176 9.292 9.00038 9.72221 10.0833 9.72221ZM1.33334 21.8555V22.5555H18.8333V21.8555C18.8333 19.2422 18.8333 17.9355 18.3247 16.9369C17.8773 16.0588 17.1634 15.3449 16.2853 14.8975C15.2867 14.3889 13.98 14.3889 11.3667 14.3889H8.80001C6.18668 14.3889 4.88001 14.3889 3.88134 14.8975C3.00329 15.3449 2.28941 16.0588 1.84201 16.9369C1.33334 17.9355 1.33334 19.2422 1.33334 21.8555Z" stroke="#F8F8F8" stroke-width="2.33333" stroke-linecap="round" stroke-linejoin="round"/>
</svg>
